<svg width="32" height="20" xmlns="http://www.w3.org/2000/svg"><g fill="none" fill-rule="evenodd"><path d="M.571-5.429h30.857v30.857H.571z"/><path fill="#FF5F00" fill-rule="nonzero" d="M11.792 2.426h8.416v15.148h-8.416z"/><path d="M12.357 10A9.521 9.521 0 0 1 16 2.51 9.523 9.523 0 0 0 3.103 3.526a9.544 9.544 0 0 0 0 12.948A9.523 9.523 0 0 0 16 17.49 9.521 9.521 0 0 1 12.357 10z" fill="#EB001B" fill-rule="nonzero"/><path d="M31.429 10a9.55 9.55 0 0 1-5.373 8.579A9.529 9.529 0 0 1 16 17.499a9.534 9.534 0 0 0 1.599-13.396A10.778 10.778 0 0 0 16 2.5a9.529 9.529 0 0 1 10.056-1.08A9.55 9.55 0 0 1 31.43 10z" fill="#F79E1B" fill-rule="nonzero"/></g></svg>