<?xml version="1.0" encoding="UTF-8" standalone="no"?>
<svg
   xmlns:dc="http://purl.org/dc/elements/1.1/"
   xmlns:cc="http://creativecommons.org/ns#"
   xmlns:rdf="http://www.w3.org/1999/02/22-rdf-syntax-ns#"
   xmlns:svg="http://www.w3.org/2000/svg"
   xmlns="http://www.w3.org/2000/svg"
   viewBox="0 0 640 260"
   height="150.88934"
   width="450.70135"
   xml:space="preserve"
   id="svg2"
   version="1.1"><metadata
     id="metadata8"><rdf:RDF><cc:Work
         rdf:about=""><dc:format>image/svg+xml</dc:format><dc:type
           rdf:resource="http://purl.org/dc/dcmitype/StillImage" /></cc:Work></rdf:RDF></metadata><defs
     id="defs6"><clipPath
       id="clipPath20"
       clipPathUnits="userSpaceOnUse"><path
         id="path18"
         d="M 0,0 H 595.276 V 270.667 H 0 Z" /></clipPath><clipPath
       id="clipPath30"
       clipPathUnits="userSpaceOnUse"><path
         id="path28"
         d="m 380.847,201.727 c 0.136,-2.611 0.511,-5.157 1.091,-7.624 v 0 c 0.136,-0.547 0.26,-1.104 0.419,-1.644 v 0 c 0.065,-0.224 0.124,-0.444 0.189,-0.668 v 0 c 5.572,-17.667 22.083,-30.486 41.596,-30.486 v 0 h 57.617 c 0.354,1.975 0.574,3.994 0.574,6.073 v 0 c 0,10.025 -4.325,19.018 -11.171,25.3 v 0 c -6.119,5.602 -14.239,9.049 -23.184,9.049 v 0 z" /></clipPath><linearGradient
       id="linearGradient44"
       spreadMethod="pad"
       gradientTransform="matrix(101.4865,0,0,-101.4865,380.8468,181.516)"
       gradientUnits="userSpaceOnUse"
       y2="0"
       x2="1"
       y1="0"
       x1="0"><stop
         id="stop40"
         offset="0"
         style="stop-opacity:1;stop-color:#55abe0" /><stop
         id="stop42"
         offset="1"
         style="stop-opacity:1;stop-color:#374593" /></linearGradient><clipPath
       id="clipPath54"
       clipPathUnits="userSpaceOnUse"><path
         id="path52"
         d="M 0,0 H 595.276 V 270.667 H 0 Z" /></clipPath></defs><g
     transform="matrix(1.3333333,0,0,-1.3333333,0,360.88933)"
     id="g10"><g
       id="g12" /><g
       id="g14"><g
         clip-path="url(#clipPath20)"
         id="g16"><path
           id="path22"
           style="fill:#00694b;fill-opacity:1;fill-rule:nonzero;stroke:none"
           d="m 382.2915,155.3986 v -51.183 h 31.203 v 28.82 h 31.404 c 16.403,0 30.396,9.303 35.804,22.363 z" /></g></g><g
       id="g24"><g
         clip-path="url(#clipPath30)"
         id="g26"><g
           id="g32"><g
             id="g38"><path
               id="path46"
               style="fill:url(#linearGradient44);stroke:none"
               d="M 0,0 H 595.276 V 270.667 H 0 Z" /></g></g></g></g><g
       id="g48"><g
         clip-path="url(#clipPath54)"
         id="g50"><path
           id="path56"
           style="fill:#00694b;fill-opacity:1;fill-rule:nonzero;stroke:none"
           d="m 326.9873,191.4259 -21.845,-47.33 h -2.217 v 57.631 h -31.032 v -97.527 h 26.335 c 6.917,0 13.203,4.022 16.102,10.305 l 21.841,47.323 h 2.22 v -57.628 h 31.032 v 97.527 h -26.337 c -6.918,0 -13.203,-4.022 -16.099,-10.301" /><path
           id="path58"
           style="fill:#00694b;fill-opacity:1;fill-rule:nonzero;stroke:none"
           d="m 182.4936,188.9094 12.927,-44.808 h 2.214 l 12.927,44.808 c 2.192,7.59 9.138,12.819 17.038,12.819 h 30.995 v -97.526 h -31.032 v 57.627 h -2.22 l -17.733,-57.627 h -22.164 l -17.733,57.627 h -2.217 v -57.627 h -31.032 v 97.526 h 30.992 c 7.897,0 14.846,-5.229 17.038,-12.819" /></g></g></g></svg>
