<svg width="36" height="12" xmlns="http://www.w3.org/2000/svg"><g fill="#2158A1" fill-rule="evenodd"><path d="M25.693.897a7.116 7.116 0 0 0-2.518-.442c-2.777 0-4.732 1.429-4.75 3.477-.015 1.515 1.397 2.36 2.463 2.863 1.094.517 1.461.846 1.456 1.308-.007.706-.873 1.029-1.681 1.029-1.125 0-1.722-.16-2.645-.553l-.362-.168-.394 2.36c.656.293 1.87.548 3.13.562 2.953 0 4.87-1.413 4.892-3.6.01-1.2-.738-2.112-2.359-2.864-.982-.488-1.583-.813-1.577-1.307 0-.438.51-.906 1.61-.906a5.086 5.086 0 0 1 2.102.404l.252.121.38-2.284M32.898.648h-2.171c-.673 0-1.176.187-1.471.874l-4.173 9.657h2.95s.482-1.298.592-1.583l3.598.004c.084.37.342 1.58.342 1.58h2.607L32.898.647zM29.433 7.44c.233-.607 1.12-2.946 1.12-2.946-.017.028.23-.61.372-1.005l.19.908.65 3.043h-2.332zM12.694 11.176L14.45.638h2.81l-1.758 10.538zM10.337.645l-2.75 7.187-.294-1.46C6.781 4.687 5.185 2.863 3.402 1.95l2.515 9.216 2.973-.003L13.313.645h-2.976"/><path d="M5.034.639H.504l-.037.22c3.525.871 5.858 2.98 6.826 5.512L6.308 1.53C6.138.86 5.644.662 5.034.639"/></g></svg>